#!OML:ASF F:\VICON\USERDATA\INSTALL\rory3\rory3.ASF
:FULLY-SPECIFIED
:DEGREES
1510
root 0.559496 15.6304 -6.75248 -208.934 221.118 -178.258
lowerback 25.9368 2.43641 -3.20649
upperback 12.6138 1.89838 -0.0586789
thorax -0.483962 0.582084 1.28042
lowerneck -2.90443 -0.864602 -5.40153
upperneck 22.7512 -1.89933 4.80684
head 7.53078 -1.04879 2.34823
rclavicle -2.45002e-014 -3.20043e-014
rhumerus -62.1685 20.4018 -109.669
rradius 65.8844
rwrist -28.9968
rhand -59.1642 16.8354
rfingers 7.12502
rthumb -31.3558 -10.4976
lclavicle -2.45002e-014 -3.20043e-014
lhumerus -69.7876 -24.2078 107.156
lradius 69.4462
lwrist 52.5025
lhand -1.99603 22.5144
lfingers 7.12502
lthumb 23.6772 51.0762
rfemur -60.6399 -25.7298 5.34574
rtibia 122.878
rfoot 16.2327 -4.9584
rtoes 6.56639
lfemur -54.3437 27.7602 -3.39858
ltibia 118.827
lfoot 24.0335 -14.9198
ltoes -11.2258
1511
root 0.564366 15.6269 -6.76228 -209.068 221.084 -178.221
lowerback 26.0507 2.42516 -3.24574
upperback 12.6774 1.86546 -0.0689229
thorax -0.464847 0.560709 1.29852
lowerneck -2.93303 -0.83916 -5.37875
upperneck 22.6411 -1.86511 4.83605
head 7.49735 -1.02648 2.35527
rclavicle -1.54058e-015 5.1684e-014
rhumerus -62.0988 20.4724 -109.707
rradius 66.061
rwrist -29.4294
rhand -59.6601 16.2386
rfingers 7.12502
rthumb -31.8282 -11.0016
lclavicle -1.54058e-015 5.1684e-014
lhumerus -69.7966 -24.1891 107.204
lradius 69.3421
lwrist 51.7353
lhand -3.06306 21.6142
lfingers 7.12502
lthumb 22.6534 50.3047
rfemur -61.0572 -26.4272 5.10809
rtibia 123.82
rfoot 16.4232 -4.45658
rtoes 6.57627
lfemur -54.727 28.3477 -3.43298
ltibia 119.701
lfoot 24.0196 -15.0834
ltoes -11.7526
1512
root 0.588934 15.7008 -6.797 -209.166 221.058 -178.194
lowerback 26.1754 2.4092 -3.24526
upperback 12.6953 1.83672 -0.0772791
thorax -0.501322 0.545532 1.29437
lowerneck -2.94733 -0.83326 -5.39044
upperneck 22.5832 -1.85925 4.87143
head 7.48062 -1.02084 2.36875
rclavicle -2.76808e-014 1.15295e-014
rhumerus -62.0742 20.5269 -109.746
rradius 66.2268
rwrist -30.1992
rhand -59.9265 15.7254
rfingers 7.12502
rthumb -32.0819 -11.4641
lclavicle -2.76808e-014 1.15295e-014
lhumerus -69.8567 -24.1509 107.324
lradius 69.2529
lwrist 51.4005
lhand -3.76642 21.399
lfingers 7.12502
lthumb 21.9783 50.1703
rfemur -60.9276 -26.9417 5.08598
rtibia 124.156
rfoot 16.5591 -4.29836
rtoes 6.81198
lfemur -54.6273 28.8517 -3.64238
ltibia 120.038
lfoot 24.0054 -15.0998
ltoes -11.9053
1513
root 0.596795 15.7006 -6.80932 -209.221 221.101 -178.304
lowerback 26.3655 2.41512 -3.12967
upperback 12.73 1.86039 -0.031485
thorax -0.551025 0.5593 1.26879
lowerneck -3.0559 -0.863216 -5.40509
upperneck 22.5962 -1.90074 4.90951
head 7.50705 -1.03662 2.38074
rclavicle 4.8901e-014 -2.54444e-014
rhumerus -61.9839 20.485 -109.663
rradius 66.3123
rwrist -30.986
rhand -59.4801 16.2236
rfingers 7.12502
rthumb -31.6568 -11.0505
lclavicle 4.8901e-014 -2.54444e-014
lhumerus -69.8576 -24.1971 107.404
lradius 69.148
lwrist 50.8956
lhand -4.02581 21.4405
lfingers 7.12502
lthumb 21.7292 50.2409
rfemur -61.2202 -27.5157 5.05321
rtibia 125.005
rfoot 16.7179 -3.99478
rtoes 6.80923
lfemur -54.9927 29.5321 -3.48922
ltibia 120.894
lfoot 24.2036 -15.1563
ltoes -11.795
1514
root 0.602592 15.7038 -6.81652 -209.808 220.952 -177.825
lowerback 26.5852 2.50841 -3.48257
upperback 12.856 1.87817 -0.109711
thorax -0.516797 0.54815 1.37683
lowerneck -3.16726 -0.875121 -5.44033
upperneck 22.551 -1.92017 4.98808
head 7.51383 -1.03949 2.41062
rclavicle -2.16675e-014 1.2921e-014
rhumerus -61.8679 20.4903 -109.589
rradius 66.4656
rwrist -31.6368
rhand -59.3105 16.253
rfingers 7.12502
rthumb -31.4952 -11.0529
lclavicle -2.16675e-014 1.2921e-014
lhumerus -69.7633 -24.2088 107.376
lradius 69.0556
lwrist 50.1216
lhand -4.26119 21.3136
lfingers 7.12502
lthumb 21.5031 50.14
rfemur -61.233 -28.2637 4.2065
rtibia 125.867
rfoot 16.9191 -3.20818
rtoes 6.24629
lfemur -54.8886 30 -3.85491
ltibia 121.634
lfoot 24.1245 -14.9341
ltoes -11.5845
1515
root 0.608227 15.7062 -6.82278 -210.271 220.832 -177.427
lowerback 26.7512 2.58021 -3.77816
upperback 12.9547 1.88484 -0.177163
thorax -0.486249 0.534672 1.46752
lowerneck -3.18381 -0.86645 -5.48655
upperneck 22.4343 -1.91609 5.08637
head 7.47876 -1.03145 2.45005
rclavicle 1.0138e-014 -2.00773e-014
rhumerus -61.7939 20.5634 -109.594
rradius 66.6752
rwrist -32.3363
rhand -59.4743 15.7433
rfingers 7.12502
rthumb -31.6513 -11.532
lclavicle 1.0138e-014 -2.00773e-014
lhumerus -69.6942 -24.2279 107.375
lradius 68.9667
lwrist 49.1134
lhand -4.2643 21.2458
lfingers 7.12502
lthumb 21.5001 50.0725
rfemur -61.2998 -29.0108 3.48877
rtibia 126.733
rfoot 17.1461 -2.65297
rtoes 6.2778
lfemur -54.828 30.5826 -4.19607
ltibia 122.409
lfoot 23.9487 -15.0023
ltoes -11.3089
1516
root 0.615313 15.7021 -6.83256 -210.051 221.031 -177.805
lowerback 26.8381 2.54841 -3.44648
upperback 12.9644 1.9188 -0.0787867
thorax -0.513877 0.563056 1.37523
lowerneck -3.08318 -0.868986 -5.47896
upperneck 22.267 -1.92068 5.10303
head 7.40582 -1.0316 2.4523
rclavicle 2.39039e-014 2.08724e-014
rhumerus -61.7329 20.5636 -109.595
rradius 66.8132
rwrist -33.0225
rhand -59.4982 15.5893
rfingers 7.12502
rthumb -31.674 -11.6815
lclavicle 2.39039e-014 2.08724e-014
lhumerus -69.719 -24.326 107.476
lradius 68.9102
lwrist 47.9851
lhand -4.016 21.4062
lfingers 7.12502
lthumb 21.7386 50.2055
rfemur -61.6442 -29.4429 3.87908
rtibia 127.547
rfoot 17.2714 -2.67326
rtoes 6.78472
lfemur -55.2173 31.5419 -3.7519
ltibia 123.313
lfoot 24.0202 -15.4416
ltoes -11.2625
